<svg enable-background="new 0 0 978.5 240" viewBox="0 0 978.5 240" xmlns="http://www.w3.org/2000/svg" xmlns:xlink="http://www.w3.org/1999/xlink"><linearGradient id="a" gradientTransform="matrix(66.445 0 0 -47.324 -15701.7295 17440.8789)" gradientUnits="userSpaceOnUse" x1="236.2842" x2="240.3059" y1="365.4706" y2="365.4706"><stop offset="0" stop-color="#2db5ef"/><stop offset="1" stop-color="#1756ed"/></linearGradient><linearGradient id="b" gradientTransform="matrix(53.942 0 0 -47.323 -12689.498 17427.8984)" gradientUnits="userSpaceOnUse" x1="236.156" x2="240.1487" y1="366.2698" y2="366.2698"><stop offset="0" stop-color="#0500ee"/><stop offset=".1605" stop-color="#0500e8"/><stop offset=".3696" stop-color="#0400d8"/><stop offset=".6055" stop-color="#0300bd"/><stop offset=".8593" stop-color="#010098"/><stop offset="1" stop-color="#000080"/></linearGradient><ellipse cx="257.5" cy="120.1" rx="19.4" ry="19.3"/><ellipse cx="30.5" cy="69.7" rx="19.4" ry="19.3"/><ellipse cx="126.5" cy="170.6" rx="19.4" ry="19.3"/><path d="m200.2 240h-123.5c-10.6 0-19.1-8.5-19.1-19s8.5-19 19.1-19h123.5c10.6 0 19.1 8.5 19.1 19s-8.5 19-19.1 19zm-21.3-120c0-10.5-8.6-19-19.1-19h-140.7c-10.5 0-19.1 8.5-19.1 19s8.6 19 19.1 19h140.6c10.6 0 19.2-8.5 19.2-19zm86.9-50.3c0-10.5-8.6-19-19.1-19h-69.3c-10.6 0-19.1 8.5-19.1 19s8.6 19 19.1 19h69.3c10.5 0 19.1-8.5 19.1-19zm-235.4 119.9h18.8c10.6 0 19.1-8.5 19.1-19s-8.6-19-19.1-19h-18.8c-10.6 0-19.1 8.5-19.1 19s8.5 19 19.1 19z" fill="url(#a)"/><ellipse cx="87.7" cy="170.6" rx="19.4" ry="19.3"/><ellipse cx="161.1" cy="19.3" rx="19.4" ry="19.3"/><ellipse cx="199.9" cy="19.3" rx="19.4" ry="19.3"/><path d="m219 139h-21c-10.6 0-19.1-8.5-19.1-19s8.6-19 19.1-19h21c10.6 0 19.1 8.5 19.1 19 .1 10.5-8.5 19-19.1 19zm-60.7-69.3c0-10.5-8.6-19-19.1-19h-70.2c-10.6 0-19.1 8.5-19.1 19s8.5 19 19.1 19h70.1c10.6 0 19.1-8.5 19.2-19zm6.7 119.9h81.6c10.6 0 19.1-8.5 19.1-19s-8.5-19-19.1-19h-81.6c-10.6 0-19.1 8.5-19.1 19-.1 10.5 8.5 19 19.1 19zm-23.3-170.3c0-10.5-8.6-19-19.1-19h-45.8c-10.6 0-19.1 8.5-19.1 19s8.6 19 19.1 19h45.8c10.6-.1 19.1-8.6 19.1-19z" fill="url(#b)"/><path d="m464.9 32.9-25.9 71.4h-12.6l-20.9-57.6-21 57.6h-12.5l-26-71.4h13l19.6 57.1 21.1-57.1h12l21 57.1 19.7-57.1c-.2 0 12.5 0 12.5 0zm2.3 35.7c0-23.5 16.8-37.8 44.1-37.8s44.1 14.3 44.1 37.8-16.8 37.8-44.1 37.8-44.1-14.2-44.1-37.8zm75.7 0c0-17.3-12.4-27-31.6-27s-31.7 9.7-31.7 27 12.4 27 31.7 27 31.6-9.7 31.6-27zm89.3 35.7-22-25.9h-29.9v25.9h-12.2v-71.4h48.2c16.5 0 28.7 7.9 28.7 22.7 0 12.3-8.5 19.9-20.9 22.1l23 26.5h-14.9zm-16.6-36.4c10.1 0 17-3.3 17-12.1 0-8.9-6.9-12.1-17-12.1h-35.4v24.3zm108.4 25.6v10.8h-64.4v-71.4h12.2v60.6c-.1 0 52.2 0 52.2 0zm90.3-24.9c0 22-16.8 35.7-43.2 35.7h-36v-71.4h36c26.4 0 43.2 13.7 43.2 35.7zm-12.5 0c0-16.5-13-25-31.6-25h-22.9v50h22.9c18.7 0 31.6-8.5 31.6-25z"/><path d="m412.3 186.9h-45.5l-9 17.2h-13.2l38.4-71.4h13.4l38.3 71.4h-13.3zm-5.4-10.3-17.3-33-17.3 33zm102.6 21.8 9.8 10.7-7 6.3-11.6-12.5c-6 2.3-13 3.5-20.9 3.5-27.3 0-44.1-14.3-44.1-37.8s16.8-37.8 44.1-37.8 44.1 14.3 44.1 37.8c.1 12.9-5.1 23.2-14.4 29.8zm-17-4.5-10.5-11.4 7.1-6.3 12.5 13.6c6.4-4.6 10-11.8 10-21.2 0-17.3-12.4-27-31.6-27s-31.7 9.7-31.7 27 12.4 27 31.7 27c4.5-.1 8.7-.6 12.5-1.7zm120-61.1v37.7c0 21.1-13.5 35.8-38.6 35.8-25 0-38.5-14.7-38.5-35.8v-37.7h12.2v36.9c0 16 9.4 25.7 26.3 25.7 17 0 26.4-9.7 26.4-25.7v-36.9zm71 54.1h-45.5l-9 17.2h-13.2l38.4-71.4h13.4l38.3 71.4h-13.3zm-5.4-10.3-17.3-33-17.3 33zm92.8-33.1h-32.3v60.7h-12.2v-60.7h-32.1v-10.7h76.6zm13.3 60.7v-71.4h12.2v71.4zm95.5-21.3 11.2 5.6c-6.7 10.4-19.7 17.8-37.6 17.8-26.5 0-43.3-14.4-43.3-37.8s16.7-37.8 43.8-37.8c17.4 0 30.4 7.5 37 17.7l-11.3 5.7c-5.3-8.8-14.3-12.6-25.8-12.6-18.8 0-31.2 9.2-31.2 27s12.5 27 31.2 27c11.5 0 20.6-3.8 26-12.6zm98.8.2c0 13.6-13.3 23.2-37.4 23.2-16.6 0-31.3-4.9-42.4-14.5l7.6-8.7c9.6 8.7 21 12.5 35.3 12.5 15.8 0 24.5-4.2 24.5-11.6 0-7.3-8.9-9.3-26.8-10.8-19.6-1.6-38-6-38-20.6 0-14.2 16.3-22 36.7-22 15.4 0 28.5 4.6 37 11.8l-7.7 8.4c-7.3-6.4-17.3-9.5-29.1-9.6-11.2-.1-24.6 2.7-24.6 10.6 0 7.5 11.9 8.9 27.4 10.1 22.1 1.8 37.5 6.3 37.5 21.2z" fill="#176ced"/></svg>